<?xml version="1.0" standalone="no"?>
<!DOCTYPE svg PUBLIC "-//W3C//DTD SVG 20010904//EN"
 "http://www.w3.org/TR/2001/REC-SVG-20010904/DTD/svg10.dtd">
<svg version="1.0" xmlns="http://www.w3.org/2000/svg"
 width="256.000000pt" height="256.000000pt" viewBox="0 0 256.000000 256.000000"
 preserveAspectRatio="xMidYMid meet">

<g transform="translate(0.000000,256.000000) scale(0.100000,-0.100000)"
fill="#000000" stroke="none">
<path d="M0 1280 l0 -1280 105 0 c77 0 105 3 105 13 0 8 4 7 11 -3 8 -11 9 -6
4 20 -31 175 -31 160 1 225 16 33 39 74 50 92 12 18 25 49 29 70 4 21 11 43
16 49 5 6 12 64 15 130 4 68 12 132 20 148 8 16 14 37 14 47 0 10 5 30 12 46
6 15 11 31 10 35 -1 4 3 20 9 35 6 15 12 43 15 62 2 18 13 44 24 58 11 14 20
32 20 39 0 16 21 56 33 65 9 7 30 41 46 75 5 12 41 50 80 85 39 35 71 69 71
76 0 34 -125 25 -210 -15 -66 -32 -67 -32 -103 -14 -16 7 -31 11 -35 8 -3 -3
-12 3 -19 14 -8 11 -18 18 -23 15 -19 -12 -19 16 0 35 11 11 20 28 20 38 0 43
84 155 142 188 122 69 220 89 292 59 53 -23 62 -49 42 -131 -9 -38 -19 -79
-21 -90 -7 -34 16 -45 127 -60 107 -15 187 -36 226 -60 16 -11 21 -21 16 -38
-6 -26 8 -40 51 -50 113 -27 232 -129 290 -250 l36 -75 30 11 c17 6 28 16 26
23 -3 6 -1 18 3 26 5 8 4 19 -2 26 -15 19 2 17 56 -7 25 -10 46 -16 46 -13 0
4 5 2 12 -5 18 -18 59 -15 65 6 6 26 61 48 83 34 23 -14 32 -5 19 19 -5 11 -8
19 -7 20 38 9 65 4 97 -16 57 -38 89 -40 170 -11 40 14 82 26 95 26 12 0 27 5
33 11 7 7 67 13 150 16 76 2 144 6 151 8 9 4 12 157 12 725 l0 720 -1280 0
-1280 0 0 -1280z m1795 352 c27 -9 24 -10 -30 -12 -116 -2 -440 -20 -465 -25
-17 -4 -14 0 10 11 70 32 159 44 310 39 80 -2 159 -8 175 -13z m125 -23 c9 -5
-2 -6 -25 -2 -22 3 -44 10 -50 14 -11 11 52 0 75 -12z m-1685 -854 c3 -22 1
-23 -16 -15 -10 6 -19 13 -19 16 0 3 6 2 13 -2 9 -6 9 -4 -1 8 -10 13 -10 17
0 21 17 6 20 2 23 -28z m-37 -167 c14 -14 15 -37 4 -56 -6 -9 -16 -10 -40 -1
l-32 11 23 28 c25 33 29 34 45 18z m-21 -365 c-3 -10 -5 -2 -5 17 0 19 2 27 5
18 2 -10 2 -26 0 -35z m10 -75 c-3 -7 -5 -2 -5 12 0 14 2 19 5 13 2 -7 2 -19
0 -25z"/>
</g>
</svg>
